<svg version="1.1" id="Layer_1" xmlns="http://www.w3.org/2000/svg" xmlns:xlink="http://www.w3.org/1999/xlink" x="0px" y="0px"
	 width="100%" viewBox="0 0 496 496" enable-background="new 0 0 496 496" xml:space="preserve">
<path fill="#000000" opacity="1.000000" stroke="none" 
	d="
M497.000000,65.000000 
	C497.000000,208.956497 497.000000,352.912994 497.000000,496.934753 
	C331.760132,496.934753 166.520233,496.934753 1.000000,496.934753 
	C1.000000,334.309357 1.000000,171.618561 1.178642,8.773793 
	C2.346164,10.306128 1.666094,12.578346 3.429645,14.391211 
	C5.060907,11.143743 6.587676,11.601957 8.664243,14.027659 
	C10.690553,16.394655 13.222876,18.357500 15.677237,20.317194 
	C16.971048,21.350241 18.645643,22.130135 20.287090,21.055836 
	C22.068874,19.889685 21.618813,18.073076 20.898424,16.576632 
	C18.957367,12.544513 18.888309,8.554069 20.958124,4.630789 
	C22.222549,2.234104 20.347477,1.828989 19.000000,1.000000 
	C158.357407,1.000000 297.714813,1.000000 437.325562,1.172048 
	C435.929199,2.393458 436.358307,3.783625 436.795715,5.302428 
	C437.488281,7.707238 437.753418,10.173052 437.532471,12.699621 
	C436.623657,23.091074 444.615967,33.976280 454.963165,35.763020 
	C461.593964,36.908016 465.799072,40.198307 467.858124,46.589333 
	C469.391663,51.349255 471.498596,55.872868 474.768768,59.762615 
	C477.622314,63.156792 480.954193,65.084465 485.649567,64.363716 
	C489.424622,63.784245 493.272949,63.796467 497.000000,65.000000 
M348.167511,323.333435 
	C342.924286,318.258667 337.681061,313.183899 332.513794,308.182648 
	C333.356232,306.835144 333.659882,306.244019 334.058929,305.726349 
	C350.340363,284.605133 359.259430,260.496155 361.408325,234.151886 
	C363.175903,212.481705 359.301758,191.365311 350.259857,171.524857 
	C336.272888,140.833405 313.814941,118.498177 282.997345,104.484489 
	C260.073059,94.060150 236.103180,90.928909 211.458511,94.490921 
	C171.575790,100.255348 140.276550,120.298973 118.342773,154.093872 
	C100.573334,181.472504 93.702888,211.816742 98.650032,244.091660 
	C103.720078,277.168304 119.324646,305.032379 145.084396,326.516052 
	C175.661087,352.017059 211.250549,360.966003 250.403458,355.326935 
	C271.429871,352.298553 290.630646,344.192657 307.610931,331.252655 
	C311.009094,328.663086 313.313843,328.867523 316.406128,332.026306 
	C333.071045,349.049805 349.960876,365.853271 366.792053,382.713776 
	C379.974548,395.919159 393.323822,408.961700 406.329681,422.338470 
	C413.984436,430.211517 429.113678,426.538177 430.831848,415.101227 
	C431.769409,408.860657 429.392456,404.510956 425.385010,400.501617 
	C399.826782,374.931305 374.243439,349.386108 348.167511,323.333435 
z"/>
<path fill="#000000" opacity="1.000000" stroke="none" 
	d="
M324.128967,265.750366 
	C318.068787,278.287872 311.019806,289.741455 301.055664,299.045074 
	C282.450409,316.416992 260.648315,326.013977 234.920166,327.615479 
	C212.973999,328.981628 193.076126,323.640839 174.802231,312.291138 
	C154.227310,299.512299 139.857468,281.348083 132.054260,258.289673 
	C122.812485,230.980331 124.369331,203.952377 137.490570,178.521973 
	C153.196732,148.081711 178.310440,129.024887 212.593018,123.591698 
	C245.416748,118.389717 274.845551,126.887161 299.216125,149.302231 
	C317.822601,166.415695 328.581146,188.147736 331.561615,213.745316 
	C333.662140,231.785355 330.541779,248.721542 324.128967,265.750366 
M221.951218,204.307053 
	C235.111160,198.759079 248.072906,192.696686 262.331207,187.843567 
	C262.331207,204.544861 262.326782,220.182556 262.335175,235.820251 
	C262.336731,238.738190 261.052063,239.551239 258.205719,238.876099 
	C251.696625,237.332169 245.596817,239.042664 239.972687,242.170532 
	C232.281937,246.447739 227.009460,255.271042 233.162811,265.356812 
	C237.181137,271.943176 248.052856,275.917206 255.428680,275.017944 
	C271.639130,273.041504 277.611755,265.865997 277.621307,249.472198 
	C277.632874,229.647919 277.624939,209.823654 277.624695,189.999374 
	C277.624603,183.668930 277.683289,177.337753 277.606140,171.008240 
	C277.492798,161.708344 273.584015,153.414795 260.374573,158.842911 
	C242.261002,166.286255 223.990005,173.345551 205.823868,180.662338 
	C197.603882,183.973114 196.382584,185.966431 196.378098,194.916367 
	C196.369247,212.574966 196.378479,230.233566 196.371246,247.892166 
	C196.367783,256.380402 196.354523,256.542786 188.123886,256.341064 
	C182.921646,256.213531 178.279587,257.622223 173.855972,260.120575 
	C163.986679,265.694550 162.156097,277.958710 170.221039,285.882660 
	C176.814240,292.360596 185.053558,293.669403 193.836288,292.256226 
	C203.668869,290.674103 212.331482,282.742737 211.802734,270.220215 
	C211.079468,253.091721 211.557755,235.909897 211.629227,218.751373 
	C211.679962,206.571014 210.265091,209.241806 221.951218,204.307053 
z"/>
</svg>