<svg version="1.1" id="Layer_1" xmlns="http://www.w3.org/2000/svg" xmlns:xlink="http://www.w3.org/1999/xlink" x="0px" y="0px"
	 width="100%" viewBox="0 0 496 496" enable-background="new 0 0 496 496" xml:space="preserve">
<path fill="#000000" opacity="1.000000" stroke="none" 
	d="
M373.119690,389.880371 
	C353.758820,370.568237 334.578796,351.574432 315.612885,332.369110 
	C312.723572,329.443359 310.918030,329.503326 307.747131,331.843567 
	C280.864868,351.683502 250.414841,359.836639 217.418671,357.051697 
	C162.109314,352.383423 116.889030,313.990723 101.713570,259.945770 
	C83.470955,194.977631 117.814133,126.640305 181.256287,101.668648 
	C258.766541,71.159615 345.743530,119.659538 360.013824,201.658340 
	C366.390106,238.297424 358.565002,272.076935 337.040375,302.468323 
	C334.293060,306.347382 334.178406,308.562683 337.690704,312.041901 
	C367.047516,341.122345 396.192780,370.416290 425.425140,399.622559 
	C428.816620,403.011078 431.387756,406.599915 431.415009,411.756989 
	C431.448242,418.055023 429.188080,422.803864 423.400818,425.496979 
	C417.411438,428.284210 411.615448,427.835022 406.696930,423.244965 
	C401.096741,418.018799 395.772949,412.496002 390.343231,407.087860 
	C384.676819,401.444000 379.027313,395.783112 373.119690,389.880371 
M159.047363,150.545349 
	C131.307037,177.921738 121.314659,211.026352 129.872589,248.731186 
	C141.713287,300.899445 194.029892,335.603943 247.679153,325.856537 
	C301.833679,316.017273 340.057068,262.366913 330.471771,208.217697 
	C321.387146,156.897034 275.355682,119.000343 222.526093,123.041237 
	C198.280579,124.895760 177.477066,133.890518 159.047363,150.545349 
z"/>
<path fill="#000000" opacity="1.000000" stroke="none" 
	d="
M209.462540,283.193481 
	C200.662827,294.235260 183.517365,296.635559 172.364532,288.667023 
	C161.749069,281.082428 162.094925,266.894775 173.097214,259.854950 
	C178.320129,256.513092 184.066956,254.995880 190.235901,255.716049 
	C194.746841,256.242645 195.913528,254.373413 195.867294,250.070953 
	C195.668594,231.580688 195.773209,213.087173 195.771179,194.594833 
	C195.770233,185.824600 197.489746,183.269836 205.718033,179.995911 
	C224.126938,172.671265 242.545151,165.370071 260.960815,158.062469 
	C265.127808,156.408951 269.361084,155.594238 273.391937,158.230011 
	C276.244598,160.095383 277.349884,162.988586 277.347321,166.397858 
	C277.324432,196.885223 277.402771,227.372849 277.291870,257.859833 
	C277.262543,265.916901 269.747223,273.302155 259.781982,275.011749 
	C251.496445,276.433228 243.463196,275.572510 236.647888,269.913513 
	C227.380417,262.218414 227.744797,250.162094 237.542343,243.161346 
	C243.445786,238.943085 250.076157,237.014313 257.356201,238.143005 
	C259.813721,238.524002 261.667725,238.715897 261.657318,235.350464 
	C261.610107,220.052505 261.636658,204.754349 261.636658,189.546173 
	C259.039673,188.481018 257.422180,190.091766 255.697250,190.797760 
	C242.755157,196.094666 229.901245,201.608978 216.924850,206.818893 
	C213.456604,208.211380 212.182938,210.157608 212.214066,213.904694 
	C212.374603,233.228683 212.249130,252.554886 212.310455,271.880035 
	C212.322922,275.804016 211.702576,279.488739 209.462540,283.193481 
z"/>
</svg>